<?xml version="1.0" encoding="UTF-8"?>
<svg version="1.1" xmlns="http://www.w3.org/2000/svg" width="auto" height="37" viewBox="0 0 512 512">
<path d="M0 0 C7.75110962 8.31026927 11.3772005 17.51354676 11.32992554 28.84710693 C11.33445665 29.65387005 11.33898776 30.46063317 11.34365618 31.29184365 C11.35626228 33.98075437 11.35468227 36.66946154 11.35302734 39.35839844 C11.359015 41.2923 11.36582109 43.22619917 11.37338257 45.16009521 C11.39102654 50.40406652 11.3957373 55.64797252 11.39701414 60.89197063 C11.39843731 64.17143873 11.40271008 67.45089032 11.40800858 70.73035431 C11.42650421 82.18059846 11.43467985 93.63079609 11.43310547 105.08105469 C11.4319045 115.73914909 11.45299932 126.39704085 11.4845928 137.05508399 C11.51078219 146.21796357 11.52147163 155.38077708 11.52019465 164.54369378 C11.51968576 170.01074619 11.52532845 175.47761849 11.54655075 180.94463348 C11.5659777 186.08949624 11.56602708 191.2340079 11.55151749 196.37888336 C11.54943376 198.26096614 11.55410412 200.14307115 11.5662384 202.02511597 C11.66218227 217.94454958 9.41784738 228.75988501 -1.8984375 240.6171875 C-20.21781861 258.11934715 -47.85790549 265.56504003 -72 270.3125 C-73.50409424 270.61051514 -73.50409424 270.61051514 -75.03857422 270.91455078 C-92.83803225 274.23010825 -110.49209386 274.93692562 -128.5625 274.875 C-129.66656189 274.87317719 -130.77062378 274.87135437 -131.90814209 274.86947632 C-147.78508874 274.82532015 -163.28648358 274.46051944 -178.9375 271.5625 C-179.9054248 271.39621094 -180.87334961 271.22992188 -181.87060547 271.05859375 C-210.11342839 266.14600738 -245.27788017 257.27698067 -262.9375 232.5625 C-267.30172061 225.05830767 -269.08679869 219.30865032 -269.08467102 210.63865662 C-269.08834771 209.83445677 -269.0920244 209.03025693 -269.0958125 208.2016874 C-269.10683654 205.50351104 -269.11069104 202.80537322 -269.11450195 200.10717773 C-269.12076767 198.17372007 -269.12741456 196.24026361 -269.13441467 194.30680847 C-269.15544803 187.95324541 -269.16581771 181.59968214 -269.17578125 175.24609375 C-269.17982935 173.05715485 -269.18394629 170.86821607 -269.18813133 168.67927742 C-269.20718293 158.3929942 -269.22141294 148.10671815 -269.2297433 137.82042068 C-269.23951014 125.95685017 -269.26581546 114.09346651 -269.30624419 102.22996181 C-269.33643676 93.05441203 -269.35121524 83.87891571 -269.35452431 74.70331722 C-269.35687158 69.22614791 -269.36578984 63.74917821 -269.39098549 58.2720623 C-269.41432549 53.11494346 -269.41847556 47.95815483 -269.40822411 42.80099678 C-269.40773005 40.91407292 -269.41401196 39.02713248 -269.42778015 37.14025879 C-269.53948381 20.91643073 -267.07471461 10.38993586 -255.765625 -1.7734375 C-249.50364214 -7.92745514 -249.50364214 -7.92745514 -244.625 -8 C-240.9375 -7.4375 -240.9375 -7.4375 -238.93212891 -6.81274414 C-235.40140721 -6.14851902 -232.39516951 -8.30709051 -229.3125 -9.875 C-222.14678571 -13.4375 -222.14678571 -13.4375 -219.9375 -13.4375 C-220.02 -14.345 -220.1025 -15.2525 -220.1875 -16.1875 C-219.9375 -19.4375 -219.9375 -19.4375 -218.4453125 -21.45703125 C-215.046464 -24.14116861 -211.69010494 -25.17859877 -207.5625 -26.375 C-206.71123535 -26.62660889 -205.8599707 -26.87821777 -204.98291016 -27.13745117 C-144.32687519 -44.08342405 -49.43557925 -45.98156498 0 0 Z " fill="#010102" transform="translate(384.9375,237.4375)"/>
<path d="M0 0 C3.39773374 1.65886429 6.50497898 3.57938469 9.6875 5.625 C29.03372121 17.62587921 50.58395887 24.37536662 73 28 C73.76235458 28.12421829 74.52470917 28.24843658 75.31016541 28.37641907 C90.29128086 30.74356042 104.97995039 31.4438571 120.13500977 31.33618164 C123.69505358 31.31244965 127.25434921 31.31567058 130.81445312 31.32226562 C148.69203474 31.30145417 166.21751136 30.37692756 183.75 26.6875 C185.33047119 26.3615686 185.33047119 26.3615686 186.94287109 26.02905273 C195.50709683 24.21015434 203.76008678 21.96885762 212 19 C212.61987793 18.77731445 213.23975586 18.55462891 213.87841797 18.32519531 C221.17967426 15.66302472 228.18404301 12.54756098 235.0625 8.9375 C235.669729 8.62127686 236.27695801 8.30505371 236.90258789 7.97924805 C239.96759076 6.31923329 242.67505697 4.517712 245.30859375 2.25390625 C248 0 248 0 250 0 C250.0996515 4.81968303 250.17183311 9.63875277 250.21972656 14.45922852 C250.23971332 16.09540264 250.26691243 17.73150651 250.30175781 19.36743164 C250.53211588 30.46865803 250.51367379 39.84645404 242.578125 48.546875 C236.19549008 54.42395468 228.60165796 58.44829268 220.91455078 62.33544922 C217.32935361 63.98637213 217.32935361 63.98637213 215 67 C214.44129502 71.86792066 214.44129502 71.86792066 216.625 76 C219.90133951 77.37951137 221.53710654 76.84772911 225 76 C227.92505946 74.74671178 230.70485597 73.26792531 233.5 71.75 C234.23347656 71.36714844 234.96695313 70.98429687 235.72265625 70.58984375 C239.22966954 68.71399943 242.38614465 66.80173506 245.40625 64.203125 C248 62 248 62 250 62 C250.0996515 66.81968303 250.17183311 71.63875277 250.21972656 76.45922852 C250.23971332 78.09540264 250.26691243 79.73150651 250.30175781 81.36743164 C250.52578074 92.16335989 250.42894781 100.41147252 243.6171875 109.28515625 C218.49798881 135.34163847 171.69658394 141.4661595 137.66111755 142.2077179 C133.27407764 142.27899228 128.88756261 142.30324062 124.5 142.3125 C123.25526413 142.31801376 123.25526413 142.31801376 121.98538208 142.32363892 C105.2344326 142.36244068 88.83818433 140.827508 72.375 137.6875 C70.64963013 137.36048096 70.64963013 137.36048096 68.8894043 137.02685547 C45.98646931 132.55587342 17.33738797 124.8111068 3.04296875 104.90625 C0.16604606 99.64805422 -0.27803787 94.64503438 -0.1953125 88.7578125 C-0.1924826 87.98944061 -0.18965271 87.22106873 -0.18673706 86.42941284 C-0.17561311 83.99444479 -0.1505236 81.55985538 -0.125 79.125 C-0.11496011 77.46615118 -0.10583603 75.80729654 -0.09765625 74.1484375 C-0.07569937 70.09881421 -0.04122406 66.04947113 0 62 C3.13030105 63.53056157 5.97057177 65.25857122 8.875 67.1875 C58.33255181 98.61907569 126.18536959 98.8436716 182.0625 89.0625 C182.93181152 88.9171582 183.80112305 88.77181641 184.69677734 88.62207031 C189.32203512 87.76282015 189.32203512 87.76282015 193.03515625 85.03125 C194.26230513 82.44777868 194.4348321 80.82640862 194 78 C192.49162582 76.0646399 191.57625318 75.12426601 189.15234375 74.6015625 C183.52172998 74.66114571 178.15585294 75.40550283 172.625 76.375 C122.59343808 85.05030646 60.65481623 83.29138864 16.46875 55.40234375 C14.54744081 54.01678424 12.7688121 52.57411849 11 51 C10.37738281 50.46890625 9.75476563 49.9378125 9.11328125 49.390625 C3.44603489 44.21050044 0.10464666 38.78748443 -0.31738281 30.99047852 C-0.44172972 26.30398544 -0.34981437 21.62359633 -0.25 16.9375 C-0.22990347 15.29233946 -0.21165827 13.64715521 -0.1953125 12.00195312 C-0.15156759 8.00070931 -0.0827166 4.00062015 0 0 Z " fill="#508CD4" transform="translate(131,293)"/>
<path d="M0 0 C1.31540268 -0.00551376 1.31540268 -0.00551376 2.65737915 -0.01113892 C39.97527917 -0.09281263 90.54532696 3.65093333 118.6875 31.3125 C123.91275369 37.38538211 126.12232457 41.34576463 126.02734375 49.4296875 C125.48902223 53.99613905 123.58988944 56.83854026 120.6875 60.3125 C119.97787109 61.18648438 119.97787109 61.18648438 119.25390625 62.078125 C110.36214323 71.92336885 97.83812682 76.8429963 85.6875 81.3125 C84.76453125 81.68117188 83.8415625 82.04984375 82.890625 82.4296875 C58.21248076 92.07659843 30.42845343 94.01598999 4.22314453 93.83398438 C0.55564652 93.81245978 -3.10990249 93.83399141 -6.77734375 93.859375 C-40.76801833 93.89878924 -86.9227645 88.81725439 -113.3125 64.3125 C-118.44400209 59.06257863 -122.54901605 54.73309895 -122.8125 47.125 C-122.67785443 40.80507352 -120.50692232 36.93779589 -116.3125 32.3125 C-114.89621068 31.07937378 -113.45866285 29.87019961 -112 28.6875 C-108.94648099 26.18547206 -108.39548762 25.63891797 -107.375 21.625 C-107.354375 20.531875 -107.33375 19.43875 -107.3125 18.3125 C-107.01098633 16.2277832 -107.01098633 16.2277832 -106.3125 14.3125 C-103.86203337 12.83157867 -101.59741084 11.64927533 -99 10.5 C-97.98389648 10.01370117 -97.98389648 10.01370117 -96.94726562 9.51757812 C-93.26827123 7.83811539 -91.15913862 7.05218416 -87.3125 8.3125 C-87.3125 8.9725 -87.3125 9.6325 -87.3125 10.3125 C-81.46185761 12.26271413 -77.22454603 11.31289318 -71.60375977 9.12792969 C-48.94142956 1.06269976 -23.78646403 0.04755139 0 0 Z " fill="#B1C9EB" transform="translate(254.3125,216.6875)"/>
<path d="M0 0 C3.0161404 1.45909637 5.74127751 3.13803588 8.51538086 5.02050781 C30.93108044 20.10102069 57.78132342 26.36106051 84.25 29.75 C85.08293579 29.85706268 85.91587158 29.96412537 86.77404785 30.07443237 C137.27120672 36.40537492 202.91344219 34.20998086 245.08203125 2.34765625 C247 1 247 1 250 0 C250.09948577 4.98041064 250.17175686 9.96023252 250.21972656 14.94140625 C250.2397406 16.63291511 250.26696073 18.32435567 250.30175781 20.015625 C250.35073065 22.45850554 250.37307033 24.90046511 250.390625 27.34375 C250.41127014 28.08991577 250.43191528 28.83608154 250.45318604 29.6048584 C250.45638309 37.22536725 247.15887157 43.55907596 242.0625 49.15234375 C224.38822018 64.98555276 198.55605196 72.0989879 175.8125 76.3125 C175.02020996 76.45969482 174.22791992 76.60688965 173.41162109 76.75854492 C157.89609103 79.39590725 142.30855775 80.33605178 126.59057617 80.26074219 C123.93450191 80.24998786 121.27910145 80.26074195 118.62304688 80.2734375 C81.85819882 80.30308094 34.84946715 74.34268628 7 48 C1.40092005 41.62180279 -0.30879111 36.00972401 -0.1953125 27.63671875 C-0.1924826 26.84473587 -0.18965271 26.05275299 -0.18673706 25.23677063 C-0.17558863 22.72019001 -0.15049422 20.20397211 -0.125 17.6875 C-0.11496329 15.97591662 -0.10583864 14.26432763 -0.09765625 12.55273438 C-0.07566681 8.36835094 -0.04117408 4.18423686 0 0 Z " fill="#508DD4" transform="translate(131,417)"/>
<path d="M0 0 C0.89805862 -0.01913956 1.79611725 -0.03827911 2.72138977 -0.05799866 C4.16677376 -0.06300636 4.16677376 -0.06300636 5.64135742 -0.06811523 C6.64011398 -0.07810043 7.63887054 -0.08808563 8.66789246 -0.09837341 C10.78018047 -0.11355238 12.89254031 -0.12059927 15.00488281 -0.12011719 C18.22541978 -0.12666546 21.44285209 -0.18111374 24.6628418 -0.23803711 C26.71816983 -0.24684227 28.77351246 -0.25279441 30.82885742 -0.25561523 C31.78637405 -0.27717178 32.74389069 -0.29872833 33.73042297 -0.32093811 C39.69079888 -0.26031806 42.87170642 0.76446756 47.17826843 4.95228577 C49.38574161 7.5594892 49.56911719 9.36729864 49.61132812 12.69848633 C49.63058098 14.02061127 49.63058098 14.02061127 49.65022278 15.3694458 C49.65760971 16.32462097 49.66499664 17.27979614 49.67260742 18.26391602 C49.68067917 19.2456781 49.68875092 20.22744019 49.69706726 21.23895264 C49.71091409 23.32033519 49.72163356 25.40174052 49.72949219 27.4831543 C49.74668233 30.659214 49.79056073 33.83422675 49.8347168 37.01000977 C49.84484567 39.03213753 49.85336116 41.05427414 49.86010742 43.07641602 C49.87761551 44.02349426 49.8951236 44.97057251 49.91316223 45.9463501 C49.8946679 51.59804061 49.37433412 55.05772387 45.43432617 59.43579102 C40.43432617 62.43579102 40.43432617 62.43579102 26.43432617 62.43579102 C26.43432617 82.89579102 26.43432617 103.35579102 26.43432617 124.43579102 C31.05432617 124.43579102 35.67432617 124.43579102 40.43432617 124.43579102 C45.08389138 126.56355815 47.30023487 128.84154061 49.43432617 133.43579102 C49.90660025 136.79579479 49.92615068 140.1323888 49.93823242 143.52172852 C49.94821762 144.49687408 49.95820282 145.47201965 49.9684906 146.47671509 C49.98365154 148.53594734 49.99071702 150.59525301 49.99023438 152.65454102 C49.9967907 155.79380591 50.05127943 158.92989859 50.1081543 162.06860352 C50.11695825 164.07380108 50.1229112 166.07901361 50.12573242 168.08422852 C50.14728897 169.01673431 50.16884552 169.94924011 50.1910553 170.91000366 C50.13002551 176.75694326 49.05971087 179.90041102 45.01548767 184.17080688 C42.23381608 186.3962408 39.57152295 186.5682913 36.14990234 186.61279297 C35.288582 186.6256282 34.42726166 186.63846344 33.5398407 186.65168762 C32.61170059 186.65907455 31.68356049 186.66646149 30.72729492 186.67407227 C29.29006828 186.68617989 29.29006828 186.68617989 27.82380676 186.6985321 C25.79547938 186.71236295 23.76712881 186.72308957 21.73876953 186.73095703 C18.64399916 186.74816771 15.5502978 186.79206271 12.45581055 186.83618164 C10.48381318 186.84630914 8.51180675 186.85482506 6.53979492 186.86157227 C5.61772751 186.87908035 4.6956601 186.89658844 3.74565125 186.91462708 C-1.8446557 186.8958452 -5.22742368 186.31572569 -9.56567383 182.43579102 C-13.43082207 177.97828289 -13.01721967 173.146108 -12.99926758 167.53344727 C-13.00450943 166.57812607 -13.00975128 165.62280487 -13.01515198 164.63853455 C-13.02156306 162.62215139 -13.02024703 160.60573078 -13.01171875 158.58935547 C-13.00321199 155.5120959 -13.03197797 152.43669533 -13.0637207 149.35961914 C-13.065333 147.39672907 -13.06475463 145.43383573 -13.06176758 143.47094727 C-13.07300156 142.55515396 -13.08423553 141.63936066 -13.09580994 140.69581604 C-13.03545888 135.13532315 -12.41346243 131.75379626 -8.56567383 127.43579102 C-3.56567383 124.43579102 -3.56567383 124.43579102 10.43432617 124.43579102 C10.43432617 103.97579102 10.43432617 83.51579102 10.43432617 62.43579102 C6.14432617 62.43579102 1.85432617 62.43579102 -2.56567383 62.43579102 C-6.75663666 60.78480566 -8.77145233 59.65510698 -11.21826172 55.89868164 C-12.97763256 51.37704439 -13.01511771 47.46406364 -12.99926758 42.65454102 C-13.00450943 41.72283081 -13.00975128 40.79112061 -13.01515198 39.83117676 C-13.02155485 37.86784865 -13.02025773 35.90448209 -13.01171875 33.94116211 C-13.00320054 30.94518534 -13.03200752 27.95111137 -13.0637207 24.95532227 C-13.06533276 23.04256242 -13.0647551 21.12979921 -13.06176758 19.21704102 C-13.07300156 18.32625854 -13.08423553 17.43547607 -13.09580994 16.5177002 C-13.03429022 11.00199392 -12.29884667 7.76986956 -8.56567383 3.43579102 C-5.6660026 0.8796351 -3.85769478 0.05604023 0 0 Z " fill="#000000" transform="translate(299.565673828125,-0.435791015625)"/>
<path d="M0 0 C4.41268167 2.8468914 7.9502319 6.62998027 11.60009766 10.37304688 C12.40576172 11.17162109 13.21142578 11.97019531 14.04150391 12.79296875 C17.79478743 16.58711717 20.33324201 19.410514 22.22509766 24.43554688 C29.79714976 24.49034618 37.3682358 24.50179695 44.94034672 24.45889282 C48.45717432 24.44030728 51.9727267 24.43629184 55.48950195 24.46630859 C59.53897719 24.50021874 63.58577423 24.4694357 67.63525391 24.43554688 C68.88967789 24.45496338 70.14410187 24.47437988 71.4365387 24.49438477 C77.88099008 24.49199701 77.88099008 24.49199701 83.49154663 21.727005 C85.25943846 19.7143979 86.75331268 17.67046252 88.22509766 15.43554688 C90.67253832 12.7778699 93.19017408 10.1971703 95.72509766 7.62304688 C96.35029297 6.96884766 96.97548828 6.31464844 97.61962891 5.640625 C102.68514249 0.50694198 106.82193881 -2.18632436 114.16259766 -3.00195312 C123.83616583 -2.51735386 130.15617322 4.72406029 136.53759766 11.18554688 C137.43027344 12.054375 138.32294922 12.92320312 139.24267578 13.81835938 C144.89705596 19.48550339 148.7980884 23.95430084 149.43994141 32.19335938 C149.30265625 33.36511719 149.30265625 33.36511719 149.16259766 34.56054688 C149.08912109 35.346875 149.01564453 36.13320312 148.93994141 36.94335938 C146.7848188 44.45684695 140.26145195 49.7659951 134.91259766 55.12304688 C134.08308594 55.97705078 133.25357422 56.83105469 132.39892578 57.7109375 C126.66526445 63.47175113 122.5491067 66.95510143 114.28759766 67.87304688 C104.42486317 67.37204906 98.21327762 59.94744349 91.78759766 53.31054688 C90.87816406 52.39144531 89.96873047 51.47234375 89.03173828 50.52539062 C82.39428934 43.77393023 82.39428934 43.77393023 81.22509766 41.43554688 C73.81898296 41.20281117 66.41366842 41.02565698 59.00462437 40.91742516 C55.56320217 40.86544816 52.12429854 40.7950961 48.68432617 40.68115234 C44.72037012 40.55068951 40.75739699 40.50300895 36.79150391 40.45898438 C35.56927628 40.40737152 34.34704865 40.35575867 33.08778381 40.30258179 C27.97166887 40.29925204 24.59026134 40.34947047 20.49607849 43.60665894 C18.22293427 46.12066051 16.21331691 48.69383565 14.22509766 51.43554688 C13.17093639 52.60754886 12.10145895 53.76643788 11.00244141 54.89648438 C10.53104736 55.38600586 10.05965332 55.87552734 9.57397461 56.37988281 C3.53614122 62.50022595 -1.48311866 67.4427861 -10.39990234 67.87304688 C-19.05236005 67.85696424 -24.94973206 60.97121322 -30.77490234 55.43554688 C-31.58958984 54.67371094 -32.40427734 53.911875 -33.24365234 53.12695312 C-39.83626319 46.78705903 -44.96306072 41.79776752 -45.33740234 32.31054688 C-45.34892753 23.62055669 -38.99407828 18.35704315 -33.25146484 12.54101562 C-32.78256836 12.07228027 -32.31367187 11.60354492 -31.83056641 11.12060547 C-30.39976776 9.68541188 -28.98576288 8.2349407 -27.57177734 6.78320312 C-26.66169922 5.86925781 -25.75162109 4.9553125 -24.81396484 4.01367188 C-23.99105957 3.18254883 -23.1681543 2.35142578 -22.3203125 1.49511719 C-15.49106981 -4.03063491 -7.51590006 -3.92983676 0 0 Z " fill="#000001" transform="translate(79.77490234375,122.564453125)"/>
<path d="M0 0 C6.0433243 4.2909497 9.80295721 9.88826552 12.4921875 16.76953125 C12.4921875 17.42953125 12.4921875 18.08953125 12.4921875 18.76953125 C33.6121875 18.76953125 54.7321875 18.76953125 76.4921875 18.76953125 C76.8221875 16.78953125 77.1521875 14.80953125 77.4921875 12.76953125 C81.36494462 5.69980013 88.14382309 -1.2517452 95.94140625 -3.75 C105.94696388 -5.63466093 114.99708513 -5.24831653 123.93359375 -0.05859375 C130.95269043 4.95657762 135.52639422 11.31313058 137.4921875 19.76953125 C138.43160698 28.28241502 137.97862868 35.39051615 133.4921875 42.76953125 C133.1415625 43.3934375 132.7909375 44.01734375 132.4296875 44.66015625 C128.5781262 50.81195555 122.78504855 54.40268327 116.1796875 57.14453125 C105.73486194 58.91484067 96.22357694 58.20351815 87.203125 52.26171875 C82.2952638 48.30969568 78.85304746 43.62628 76.4921875 37.76953125 C76.4921875 36.77953125 76.4921875 35.78953125 76.4921875 34.76953125 C55.3721875 35.09953125 34.2521875 35.42953125 12.4921875 35.76953125 C10.0171875 40.71953125 10.0171875 40.71953125 7.4921875 45.76953125 C1.54011366 52.73233461 -5.10485595 57.24028958 -14.390625 58.0078125 C-25.74703268 58.26777846 -33.31039574 55.8027853 -41.59765625 47.91015625 C-47.0082645 41.84673432 -49.08354297 34.35164216 -49.8203125 26.39453125 C-48.95162766 16.31778705 -45.11460914 8.51191918 -37.5078125 1.76953125 C-26.13672703 -6.28782472 -12.19159292 -7.05394333 0 0 Z " fill="#000000" transform="translate(87.5078125,4.23046875)"/>
<path d="M0 0 C11.99193935 5.15243022 24.9590461 11.16076762 32.5625 22.3125 C34.75123199 27.92707337 35.37341425 33.51784795 33.1171875 39.23828125 C31.89029034 41.33050655 30.55454485 43.13931716 29 45 C28.29037109 45.87398438 28.29037109 45.87398438 27.56640625 46.765625 C18.67464323 56.61086885 6.15062682 61.5304963 -6 66 C-6.92296875 66.36867188 -7.8459375 66.73734375 -8.796875 67.1171875 C-33.47501924 76.76409843 -61.25904657 78.70348999 -87.46435547 78.52148438 C-91.13185348 78.49995978 -94.79740249 78.52149141 -98.46484375 78.546875 C-127.26357539 78.58026887 -155.28701384 73.85681421 -182 63 C-178.51400787 61.82976151 -176.01974273 62.19311286 -172.4375 62.875 C-145.93531056 67.1995028 -117.57669052 65.89516735 -91 63 C-90.30100586 62.93055176 -89.60201172 62.86110352 -88.88183594 62.78955078 C-60.43325127 59.9475849 -25.71318283 51.19977156 -5.625 29.5625 C0.24105202 22.17994022 1.76225057 15.3195919 1 6 C0.72756589 3.99079847 0.42849573 1.98179275 0 0 Z " fill="#81ACE1" transform="translate(346,232)"/>
<path d="M0 0 C0.82127884 -0.01283524 1.64255768 -0.02567047 2.48872375 -0.03889465 C3.3731163 -0.04628159 4.25750885 -0.05366852 5.16870117 -0.0612793 C6.53933968 -0.07338692 6.53933968 -0.07338692 7.93766785 -0.08573914 C9.87183745 -0.09956811 11.80603134 -0.11029557 13.74023438 -0.11816406 C16.69017035 -0.13537263 19.63898413 -0.17926856 22.58862305 -0.22338867 C24.4694742 -0.23351645 26.35033486 -0.24203229 28.23120117 -0.2487793 C29.10952103 -0.26628738 29.98784088 -0.28379547 30.89277649 -0.30183411 C36.38446489 -0.28249425 39.63366873 0.39091208 43.89916992 4.17700195 C48.33248309 9.19351213 48.47776073 13.35864501 48.39526367 19.73950195 C48.3967189 20.64901611 48.39817413 21.55853027 48.39967346 22.49560547 C48.39801901 24.41189794 48.38650867 26.32820432 48.36572266 28.24438477 C48.33676095 31.16781393 48.34512486 34.08942832 48.3581543 37.01293945 C48.35191629 38.88013571 48.34352487 40.74732628 48.33276367 42.61450195 C48.33569931 43.48341064 48.33863495 44.35231934 48.34165955 45.24755859 C48.24443281 51.54108892 47.19633143 55.94029207 42.52416992 60.48950195 C37.59814855 63.65622998 32.30441903 63.34815297 26.59838867 63.38012695 C25.80318314 63.38582703 25.0079776 63.3915271 24.18867493 63.3973999 C22.51023679 63.40681887 20.83178043 63.41337151 19.15332031 63.41723633 C16.60537937 63.42693077 14.05824964 63.4579783 11.51049805 63.48950195 C9.873133 63.4960343 8.23576224 63.50128386 6.59838867 63.50512695 C5.84603439 63.51747375 5.09368011 63.52982056 4.31852722 63.5425415 C-1.10609471 63.52005634 -5.15844717 62.460108 -10.10083008 60.17700195 C-14.75258426 54.45176604 -15.26673388 49.74234891 -15.30395508 42.59887695 C-15.30965515 41.75407776 -15.31535522 40.90927856 -15.32122803 40.03887939 C-15.33067308 38.25013479 -15.33721005 36.46137281 -15.34106445 34.67260742 C-15.35074436 31.95110211 -15.3817613 29.23036048 -15.41333008 26.5090332 C-15.41986314 24.76815225 -15.42511242 23.02726592 -15.42895508 21.28637695 C-15.44130188 20.47883972 -15.45364868 19.67130249 -15.46636963 18.83929443 C-15.44572614 13.53862888 -14.59830577 9.87822037 -12.10083008 5.17700195 C-8.28301423 1.55007689 -5.23239281 0.07140443 0 0 Z " fill="#030200" transform="translate(53.100830078125,247.822998046875)"/>
<path d="M0 0 C2.83847989 1.54879497 4.91746288 3.63665662 7.18325806 5.92379761 C7.65692307 6.39837906 8.13058807 6.87296051 8.61860657 7.36192322 C9.60888991 8.35820263 10.5943556 9.35929237 11.57510376 10.36495972 C13.07303892 11.89959099 14.58655182 13.41742507 16.10317993 14.93356323 C26.01593288 24.94724125 26.01593288 24.94724125 26.25747681 32.64645386 C25.91144023 45.13386058 15.07772395 53.2800224 6.55044556 61.37155151 C2.04820758 65.35760153 -2.28365925 68.06476197 -8.43002319 68.27145386 C-9.14545288 68.30883667 -9.86088257 68.34621948 -10.59799194 68.38473511 C-19.47065133 66.95619763 -25.04923648 60.73507968 -31.05502319 54.58395386 C-31.90000366 53.74606323 -32.74498413 52.90817261 -33.61557007 52.04489136 C-39.61944736 45.9790201 -43.94183896 40.82913876 -44.24252319 31.95895386 C-42.99887386 24.62936101 -39.34252506 20.11998139 -34.24252319 14.95895386 C-33.21959217 13.87637174 -32.19752481 12.79297318 -31.17611694 11.70895386 C-30.05398176 10.54078403 -28.93027262 9.37412416 -27.80502319 8.20895386 C-27.01732544 7.37605835 -27.01732544 7.37605835 -26.2137146 6.52633667 C-18.581363 -1.21133717 -10.46003204 -4.69568432 0 0 Z " fill="#000101" transform="translate(451.2425231933594,122.04104614257813)"/>
<path d="M0 0 C8.2180584 5.68845696 12.59487553 12.38331889 14.68359375 22.07421875 C16.2394154 31.54360236 13.27670158 40.25259005 7.80859375 47.95703125 C1.73909512 54.81307398 -6.34396454 58.25191499 -15.32421875 58.95703125 C-24.01726067 59.09662754 -31.17519195 56.34762644 -38 51 C-44.85891846 44.25711587 -47.95415083 36.60864602 -48.4375 27.0625 C-48.11104909 18.39794884 -44.90312399 10.95560792 -38.921875 4.71875 C-27.7442731 -5.27747935 -13.30264564 -6.99518737 0 0 Z " fill="#000100" transform="translate(459,252)"/>
<path d="M0 0 C7.59577161 4.31680486 12.17577312 10.97837991 14.84765625 19.24609375 C17.13195129 28.17809772 15.57878217 35.70679994 11.97265625 44.12109375 C6.8676825 52.14319536 -0.17750722 56.17114824 -9.02734375 59.12109375 C-19.63848365 60.02891918 -27.98332159 58.6841538 -36.33984375 51.87109375 C-43.25453559 45.33356692 -46.98075061 37.89937301 -47.33984375 28.30859375 C-47.07698972 18.67061267 -43.99029649 10.89027229 -37.02734375 4.12109375 C-26.09196208 -3.77760379 -12.46478243 -6.01389336 0 0 Z " fill="#000100" transform="translate(458.02734375,2.87890625)"/>
<path d="M0 0 C10.56 0 21.12 0 32 0 C32 10.56 32 21.12 32 32 C21.44 32 10.88 32 0 32 C0 21.44 0 10.88 0 0 Z " fill="#F8BE42" transform="translate(302,139)"/>
<path d="M0 0 C10.56 0 21.12 0 32 0 C32 10.56 32 21.12 32 32 C21.44 32 10.88 32 0 32 C0 21.44 0 10.88 0 0 Z " fill="#F8BE42" transform="translate(302,15)"/>
<path d="M0 0 C10.23 0 20.46 0 31 0 C31 10.23 31 20.46 31 31 C20.77 31 10.54 31 0 31 C0 20.77 0 10.54 0 0 Z " fill="#FFC344" transform="translate(54,264)"/>
<path d="M0 0 C2.00134153 0.84513322 3.97931676 1.74668309 5.9375 2.6875 C14.13942516 6.43091347 22.7588241 8.45360243 31.484375 10.60546875 C35.17265874 11.52753968 38.85356791 12.46654342 42.515625 13.48828125 C43.30743164 13.70653564 44.09923828 13.92479004 44.91503906 14.1496582 C47.24852364 15.10135923 48.44379348 16.02801544 50 18 C50.5 20.875 50.5 20.875 50 24 C47.9375 26.875 47.9375 26.875 45 29 C38.23918211 29.7643455 31.97296196 27.66604649 25.5 25.875 C24.34395264 25.55877686 23.18790527 25.24255371 21.99682617 24.91674805 C10.75642668 21.77101103 -0.00983695 18.14684508 -10 12 C-11.56430248 8.87139505 -11.35627284 6.44397075 -11 3 C-7.37459697 -1.26518004 -5.22218093 -1.24642017 0 0 Z " fill="#010304" transform="translate(159,323)"/>
<path d="M0 0 C2.79385359 1.07732143 5.51296261 2.26520214 8.23608398 3.5090332 C16.96936021 7.44330256 26.23026258 9.88075644 35.53125 12.09375 C36.26037598 12.26825684 36.98950195 12.44276367 37.74072266 12.62255859 C39.1284205 12.94924381 40.51868346 13.26528009 41.91162109 13.56884766 C45.39155028 14.37577475 47.90593889 14.98696244 50 18 C50.5 20.875 50.5 20.875 50 24 C47.9375 26.875 47.9375 26.875 45 29 C38.73057673 29.62041168 33.08839242 27.99882991 27.0625 26.375 C26.04921631 26.10574707 25.03593262 25.83649414 23.99194336 25.55908203 C-4.08796686 17.91203314 -4.08796686 17.91203314 -11 11 C-11.54794521 4.09589041 -11.54794521 4.09589041 -10 1 C-6.5675636 -0.7162182 -3.67505806 -0.701088 0 0 Z " fill="#010204" transform="translate(159,385)"/>
<path d="M0 0 C2.4014953 0.93149867 4.77393444 1.91789452 7.14624023 2.92138672 C16.92499894 6.88740407 26.83171643 9.59950394 37.09643555 12.01147461 C38.19826172 12.27694092 39.30008789 12.54240723 40.43530273 12.81591797 C41.41708496 13.04255127 42.39886719 13.26918457 43.41040039 13.50268555 C46.04295069 14.4094184 47.23462946 15.14806484 48.89624023 17.35888672 C49.59207836 21.35995596 49.2308738 22.87785097 46.89624023 26.23388672 C43.12241388 28.90701372 40.32921403 28.80209059 35.89624023 28.35888672 C32.40122873 27.69323783 29.00374362 26.7722293 25.58374023 25.79638672 C24.63112305 25.52971191 23.67850586 25.26303711 22.69702148 24.98828125 C16.18428487 23.1214839 9.76529852 21.04297749 3.39624023 18.73388672 C2.24128052 18.31901001 2.24128052 18.31901001 1.06298828 17.89575195 C-3.73635972 16.09233151 -8.4155122 14.04713429 -12.10375977 10.35888672 C-12.56399665 3.22521498 -12.56399665 3.22521498 -11.04125977 0.35888672 C-7.50367792 -1.46696197 -3.75976625 -1.14577535 0 0 Z " fill="#010204" transform="translate(160.103759765625,447.64111328125)"/>
<path d="M0 0 C2.99511812 1.11928189 4.50034181 2.46616884 6.72290039 4.7565918 C7.4737793 5.52036133 8.2246582 6.28413086 8.99829102 7.07104492 C9.7672168 7.87348633 10.53614258 8.67592773 11.32836914 9.50268555 C12.11663086 10.30899414 12.90489258 11.11530273 13.71704102 11.94604492 C15.6592983 13.93538723 17.59160575 15.93345826 19.51586914 17.94018555 C17.28094982 22.96752989 13.52071925 26.38094755 9.70336914 30.25268555 C8.99116211 31.00614258 8.27895508 31.75959961 7.54516602 32.53588867 C6.84842773 33.24293945 6.15168945 33.94999023 5.43383789 34.6784668 C4.80243896 35.32855713 4.17104004 35.97864746 3.52050781 36.6484375 C1.51586914 37.94018555 1.51586914 37.94018555 -0.97753906 37.85791016 C-5.55408629 36.1823242 -8.48400141 32.5952895 -11.85913086 29.19018555 C-12.60807617 28.4734668 -13.35702148 27.75674805 -14.12866211 27.01831055 C-14.83120117 26.31706055 -15.53374023 25.61581055 -16.25756836 24.89331055 C-16.90129395 24.25554687 -17.54501953 23.6177832 -18.20825195 22.96069336 C-19.48413086 20.94018555 -19.48413086 20.94018555 -19.3996582 18.44458008 C-17.72684051 13.86864304 -14.13799943 10.93909049 -10.73413086 7.56518555 C-10.01741211 6.81624023 -9.30069336 6.06729492 -8.56225586 5.2956543 C-7.51038086 4.2418457 -7.51038086 4.2418457 -6.43725586 3.16674805 C-5.79949219 2.52302246 -5.16172852 1.87929687 -4.50463867 1.21606445 C-2.48413086 -0.05981445 -2.48413086 -0.05981445 0 0 Z " fill="#00BCF4" transform="translate(442.484130859375,136.059814453125)"/>
<path d="M0 0 C2.74866 0.99855665 4.15600427 2.05593145 6.22290039 4.10717773 C6.8790332 4.7581543 7.53516602 5.40913086 8.21118164 6.07983398 C8.88020508 6.76432617 9.54922852 7.44881836 10.23852539 8.15405273 C11.26526367 9.15758789 11.26526367 9.15758789 12.31274414 10.18139648 C13.28920898 11.1655957 13.28920898 11.1655957 14.28540039 12.16967773 C14.87675781 12.76554688 15.46811523 13.36141602 16.07739258 13.9753418 C17.83602874 16.37901406 18.38902302 17.92185733 18.48852539 20.90405273 C17.12084961 23.0480957 17.12084961 23.0480957 15.04321289 25.14624023 C14.29555664 25.90163086 13.54790039 26.65702148 12.77758789 27.43530273 C11.98094727 28.20874023 11.18430664 28.98217773 10.36352539 29.77905273 C9.59008789 30.57569336 8.81665039 31.37233398 8.01977539 32.19311523 C6.88668945 33.31459961 6.88668945 33.31459961 5.73071289 34.45874023 C5.0383252 35.14436035 4.3459375 35.82998047 3.63256836 36.53637695 C1.48852539 37.90405273 1.48852539 37.90405273 -1.01367188 37.85791016 C-3.9856041 36.72299283 -5.50664136 35.36704883 -7.71850586 33.08764648 C-8.46938477 32.32387695 -9.22026367 31.56010742 -9.99389648 30.77319336 C-10.76282227 29.97075195 -11.53174805 29.16831055 -12.32397461 28.34155273 C-13.11223633 27.53524414 -13.90049805 26.72893555 -14.71264648 25.89819336 C-16.65490377 23.90885105 -18.58721122 21.91078002 -20.51147461 19.90405273 C-18.27655529 14.87670839 -14.51632472 11.46329073 -10.69897461 7.59155273 C-9.98676758 6.8380957 -9.27456055 6.08463867 -8.54077148 5.30834961 C-7.8440332 4.60129883 -7.14729492 3.89424805 -6.42944336 3.16577148 C-5.79804443 2.51568115 -5.16664551 1.86559082 -4.51611328 1.19580078 C-2.51147461 -0.09594727 -2.51147461 -0.09594727 0 0 Z " fill="#01BCF5" transform="translate(70.511474609375,136.095947265625)"/>
<path d="M0 0 C4.57593704 1.67281769 7.50548959 5.26165877 10.87939453 8.66552734 C11.62833984 9.38224609 12.37728516 10.09896484 13.14892578 10.83740234 C13.85146484 11.53865234 14.55400391 12.23990234 15.27783203 12.96240234 C15.92155762 13.60016602 16.5652832 14.23792969 17.22851562 14.89501953 C18.50439453 16.91552734 18.50439453 16.91552734 18.41992188 19.41113281 C16.74710418 23.98706985 13.1582631 26.9166224 9.75439453 30.29052734 C9.03767578 31.03947266 8.32095703 31.78841797 7.58251953 32.56005859 C6.53064453 33.61386719 6.53064453 33.61386719 5.45751953 34.68896484 C4.81975586 35.33269043 4.18199219 35.97641602 3.52490234 36.63964844 C1.50439453 37.91552734 1.50439453 37.91552734 -0.99121094 37.83105469 C-5.56714797 36.15823699 -8.49670053 32.56939592 -11.87060547 29.16552734 C-12.61955078 28.44880859 -13.36849609 27.73208984 -14.14013672 26.99365234 C-14.84267578 26.29240234 -15.54521484 25.59115234 -16.26904297 24.86865234 C-16.91276855 24.23088867 -17.55649414 23.593125 -18.21972656 22.93603516 C-19.49560547 20.91552734 -19.49560547 20.91552734 -19.41113281 18.41992188 C-17.73831512 13.84398484 -14.14947404 10.91443228 -10.74560547 7.54052734 C-10.02888672 6.79158203 -9.31216797 6.04263672 -8.57373047 5.27099609 C-7.52185547 4.2171875 -7.52185547 4.2171875 -6.44873047 3.14208984 C-5.8109668 2.49836426 -5.17320312 1.85463867 -4.51611328 1.19140625 C-2.49560547 -0.08447266 -2.49560547 -0.08447266 0 0 Z " fill="#01BDF6" transform="translate(194.49560546875,136.08447265625)"/>
<path d="M0 0 C4.49174728 1.75422004 7.88361287 4.30812456 10.5 8.375 C12.62082064 13.50031654 12.78502494 16.93414489 10.8125 22.125 C8.19539125 26.27627595 5.72801733 29.42399422 1 31 C-4.32395865 31.59343488 -9.37221029 31.95347406 -14 28.9375 C-17.81563682 25.68002588 -19.54264006 21.9499716 -20.3125 16.984375 C-20.62938275 11.79542003 -19.285274 8.90681232 -16 5 C-10.69687713 0.32820128 -7.00928506 -0.97258022 0 0 Z " fill="#7DCD5F" transform="translate(198,15)"/>
<path d="M0 0 C4.9710149 2.53240382 8.49430567 5.98861134 11 11 C11.54035594 15.9252115 11.54435469 19.86941718 9.375 24.375 C4.93379575 29.28369944 1.7101645 31.25983491 -4.9375 31.625 C-10.18420006 31.45554136 -12.97882324 30.36414427 -16.6953125 26.703125 C-20.69211768 21.4857386 -20.73266219 16.38992723 -20 10 C-17.97747569 5.55044652 -15.38625611 2.93949347 -10.9921875 0.6953125 C-7.29228383 -0.59602643 -3.84128838 -0.69395538 0 0 Z " fill="#7ECE5F" transform="translate(447,15)"/>
<path d="M0 0 C4.01354942 1.66769898 7.03428774 3.97393073 10 7.125 C12.03740031 12.9825259 12.02708606 18.82731794 9.375 24.4375 C5.04565669 29.10863357 1.92123974 31.23861982 -4.5 31.5 C-9.4207651 31.29969749 -12.30010527 30.42917072 -16 27 C-19.93737065 22.64816928 -20.63423042 19.08267102 -20.38671875 13.3984375 C-19.60214117 8.5324715 -16.95669773 5.84280514 -13.375 2.6875 C-8.96124398 -0.44858981 -5.32747114 -0.75500785 0 0 Z " fill="#7ECF5F" transform="translate(74,15)"/>
<path d="M0 0 C4.85857844 2.29678253 7.63468979 5.17840611 10 10 C10.90107455 15.63930927 10.26166412 20.21622595 7 25 C3.03058582 29.00195036 -0.57357008 31.11698046 -6.25 31.375 C-11.37953992 31.3081656 -14.44539724 29.63166731 -18 26 C-21.55549216 21.06818829 -21.85301373 15.88483632 -21 10 C-16.59734415 0.85602246 -9.56397657 -1.39682519 0 0 Z " fill="#7ECF5F" transform="translate(448,264)"/>
<path d="M0 0 C2.4375 1.5625 2.4375 1.5625 4 4 C4.5625 7.5 4.5625 7.5 4 11 C1.875 13.5 1.875 13.5 -1 15 C-4.15548924 14.93689022 -6.13769198 14.48864121 -8.875 12.9375 C-10.71730752 9.76463704 -10.52772961 6.56774951 -10 3 C-7.83165681 -1.08158719 -4.19361486 -0.51500533 0 0 Z " fill="#020406" transform="translate(329,458)"/>
<path d="M0 0 C2 1.0625 2 1.0625 3 3 C3.49573337 6.89504791 3.58016848 9.09493717 1.4375 12.4375 C-1.96719488 14.61999672 -4.03430012 14.63734462 -8 14 C-10.5 11.875 -10.5 11.875 -12 9 C-11.93689022 5.84451076 -11.48864121 3.86230802 -9.9375 1.125 C-6.76463704 -0.71730752 -3.56774951 -0.52772961 0 0 Z " fill="#020406" transform="translate(330,334)"/>
<path d="M0 0 C1.875 1.125 1.875 1.125 3 3 C3.49573337 6.89504791 3.58016848 9.09493717 1.4375 12.4375 C-1.90506283 14.58016848 -4.10495209 14.49573337 -8 14 C-9.9375 13 -9.9375 13 -11 11 C-11.39302445 7.90493248 -11.62908496 5.95551234 -11 3 C-7.56705737 -1.13972494 -5.05326616 -1.64780418 0 0 Z " fill="#020406" transform="translate(361,323)"/>
<path d="M0 0 C2.4375 1.625 2.4375 1.625 4 4 C4.48288863 7.31123632 4.29618989 9.296549 3 12.375 C0.4173429 14.47340889 -1.77490543 14.62470524 -5.0546875 14.44921875 C-7 14 -7 14 -9.5625 11.875 C-11.34196438 8.31607124 -11.2227635 6.74980806 -10 3 C-7.61253564 -0.97910727 -4.27841235 -0.52541906 0 0 Z " fill="#020406" transform="translate(329,396)"/>
<path d="M0 0 C2 1 2 1 3 3 C3.51981506 6.56444611 3.63102777 9.73794446 2 13 C-1.26205554 14.63102777 -4.43555389 14.51981506 -8 14 C-10 13 -10 13 -11 11 C-11.51981506 7.43555389 -11.63102777 4.26205554 -10 1 C-6.73794446 -0.63102777 -3.56444611 -0.51981506 0 0 Z " fill="#020305" transform="translate(361,385)"/>
<path d="M0 0 C2.4375 1 2.4375 1 4 3 C4.65289471 6.56124386 4.63208836 9.73582328 3 13 C-0.26205554 14.63102777 -3.43555389 14.51981506 -7 14 C-9 13 -9 13 -10 11 C-10.52265149 7.4161041 -10.66071832 4.24370507 -8.9375 1 C-5.85873258 -0.58904125 -3.39844421 -0.35773097 0 0 Z " fill="#010305" transform="translate(360,447)"/>
</svg>
