<?xml version="1.0" encoding="UTF-8"?>
<svg version="2.1" xmlns="http://www.w3.org/2000/svg" width="29" height="auto" viewBox="0 0 90 105">
<path d="M0 0 C1.67083819 1.32810215 3.33729713 2.66172696 5 4 C6.36125 4.5259375 6.36125 4.5259375 7.75 5.0625 C8.86375 5.5265625 8.86375 5.5265625 10 6 C10.495 7.485 10.495 7.485 11 9 C11.66 9.33 12.32 9.66 13 10 C13.5625 11.8125 13.5625 11.8125 14 14 C14.29197266 14.87978516 14.29197266 14.87978516 14.58984375 15.77734375 C15.48140034 20.60873134 13.71920316 25.5058414 12 30 C10.32673245 32.31304633 8.59743261 34.2277376 6.5234375 36.18359375 C3.94653991 39.25604857 3.98612765 42.29251021 4.0625 46.1875 C4 49 4 49 2 51 C3.32 51.33 4.64 51.66 6 52 C6 52.33 6 52.66 6 53 C8.33294775 53.04241723 10.66702567 53.04092937 13 53 C13.33 52.67 13.66 52.34 14 52 C16.5 51.875 16.5 51.875 19 52 C19.33 52.33 19.66 52.66 20 53 C21.51165654 53.39148761 23.03469632 53.73972457 24.5625 54.0625 C25.38878906 54.23910156 26.21507813 54.41570312 27.06640625 54.59765625 C28.02353516 54.79681641 28.02353516 54.79681641 29 55 C29.02685412 57.31243792 29.04632841 59.6249627 29.0625 61.9375 C29.07410156 63.22527344 29.08570312 64.51304688 29.09765625 65.83984375 C29 69 29 69 28 70 C26.00418759 70.22902765 24.00829833 70.45744704 22.01171875 70.6796875 C19.72074928 71.04446322 17.96516431 71.77177231 16 73 C15.01 72.34 14.02 71.68 13 71 C11.06376807 70.81589603 11.06376807 70.81589603 8.98828125 71.0234375 C8.23095703 71.075 7.47363281 71.1265625 6.69335938 71.1796875 C5.90767578 71.24414062 5.12199219 71.30859375 4.3125 71.375 C3.51521484 71.43171875 2.71792969 71.4884375 1.89648438 71.546875 C-0.06973581 71.68816028 -2.03498824 71.84279906 -4 72 C-4 72.33 -4 72.66 -4 73 C-6.08304538 73.05418326 -8.16649768 73.09287551 -10.25 73.125 C-11.41015625 73.14820312 -12.5703125 73.17140625 -13.765625 73.1953125 C-16.89513038 73.00633271 -18.34577159 72.51502418 -21 71 C-24.9699753 70.66916873 -27.58794404 70.90027326 -31 73 C-31.99 72.34 -32.98 71.68 -34 71 C-36.01658904 70.58483202 -36.01658904 70.58483202 -38.125 70.4375 C-42 70 -42 70 -43 69 C-43.07271741 66.64686445 -43.08370868 64.29166332 -43.0625 61.9375 C-43.05347656 60.64714844 -43.04445313 59.35679688 -43.03515625 58.02734375 C-43.02355469 57.02832031 -43.01195312 56.02929688 -43 55 C-42.04287109 54.80083984 -42.04287109 54.80083984 -41.06640625 54.59765625 C-40.24011719 54.42105469 -39.41382813 54.24445313 -38.5625 54.0625 C-37.73878906 53.88847656 -36.91507813 53.71445313 -36.06640625 53.53515625 C-34.02338796 53.19247006 -34.02338796 53.19247006 -33 52 C-30.5 51.875 -30.5 51.875 -28 52 C-27.67 52.33 -27.34 52.66 -27 53 C-24.92522297 52.93559081 -24.92522297 52.93559081 -22.5625 52.625 C-21.75941406 52.53476563 -20.95632812 52.44453125 -20.12890625 52.3515625 C-17.95395868 52.10010759 -17.95395868 52.10010759 -16 51 C-16.66 50.34 -17.32 49.68 -18 49 C-17.814375 47.906875 -17.62875 46.81375 -17.4375 45.6875 C-16.70265053 42.05719844 -16.70265053 42.05719844 -18.1875 39.125 C-20.14079774 36.83492679 -21.05577584 36.30457491 -24 36 C-24.12375 35.38125 -24.2475 34.7625 -24.375 34.125 C-24.87197356 31.80879168 -24.87197356 31.80879168 -27 30 C-27.33 29.34 -27.66 28.68 -28 28 C-28.66 27.67 -29.32 27.34 -30 27 C-30 24.03 -30 21.06 -30 18 C-29.01 18 -28.02 18 -27 18 C-26.896875 17.113125 -26.79375 16.22625 -26.6875 15.3125 C-25.96235232 11.81860662 -25.03405184 9.90578834 -23 7 C-21.9171875 5.39125 -21.9171875 5.39125 -20.8125 3.75 C-17.16432049 0.18289115 -14.88171987 0.20140691 -10 0 C-8.9275 -0.20625 -7.855 -0.4125 -6.75 -0.625 C-3.96043464 -1.00539528 -2.57200679 -1.07858349 0 0 Z M-29 21 C-28 24 -28 24 -28 24 Z M-28 24 C-27 27 -27 27 -27 27 Z M-17 71 C-17 71.33 -17 71.66 -17 72 C-15.02 72 -13.04 72 -11 72 C-11 71.67 -11 71.34 -11 71 C-12.98 71 -14.96 71 -17 71 Z " fill="#251908" transform="translate(51,21)"/>
<path d="M0 0 C5.11672318 2.78887866 8.6494812 5.44073303 10.83984375 10.9375 C12.4386006 16.7132906 11.4580795 20.96068358 8.67578125 26.078125 C6.27587516 29.56823234 3.19246685 32.04243845 -0.60546875 33.94140625 C-6.16078123 34.44870275 -11.02377111 34.70401047 -16.10546875 32.25390625 C-21.15388405 27.5841221 -24.27388425 23.52251888 -24.91796875 16.56640625 C-24.55444025 12.34947567 -23.45463181 9.71678082 -21.60546875 5.94140625 C-22.26546875 5.61140625 -22.92546875 5.28140625 -23.60546875 4.94140625 C-23.27546875 3.95140625 -22.94546875 2.96140625 -22.60546875 1.94140625 C-21.61546875 1.94140625 -20.62546875 1.94140625 -19.60546875 1.94140625 C-19.60546875 2.60140625 -19.60546875 3.26140625 -19.60546875 3.94140625 C-18.67734375 3.30203125 -17.74921875 2.66265625 -16.79296875 2.00390625 C-11.31545906 -1.54036473 -6.07868789 -2.46975175 0 0 Z " fill="#C27474" transform="translate(50.60546875,25.05859375)"/>
<path d="M0 0 C1.67083819 1.32810215 3.33729713 2.66172696 5 4 C6.36125 4.5259375 6.36125 4.5259375 7.75 5.0625 C8.86375 5.5265625 8.86375 5.5265625 10 6 C10.495 7.485 10.495 7.485 11 9 C11.66 9.33 12.32 9.66 13 10 C13.5625 11.8125 13.5625 11.8125 14 14 C14.29197266 14.87978516 14.29197266 14.87978516 14.58984375 15.77734375 C15.48147476 20.60913465 13.71815954 25.50501696 12 30 C10.35668432 32.25054549 8.66633392 34.10138225 6.62109375 35.98828125 C4.3569688 38.53074662 4.3569688 38.53074662 3 45 C-3.6 45 -10.2 45 -17 45 C-17.33 43.02 -17.66 41.04 -18 39 C-19.86747263 37.60761953 -19.86747263 37.60761953 -22 37 C-22.66 36.67 -23.32 36.34 -24 36 C-24.34342449 34.66923011 -24.67619874 33.33568021 -25 32 C-25.66 31.34 -26.32 30.68 -27 30 C-27.33 29.34 -27.66 28.68 -28 28 C-28.66 27.67 -29.32 27.34 -30 27 C-30 24.03 -30 21.06 -30 18 C-29.01 18 -28.02 18 -27 18 C-26.7834375 16.576875 -26.7834375 16.576875 -26.5625 15.125 C-26 12 -26 12 -25 10 C-24.01 10 -23.02 10 -22 10 C-22.33 11.010625 -22.66 12.02125 -23 13.0625 C-24.78504359 19.50417906 -24.40123606 24.3519562 -21.21484375 30.203125 C-19.07329377 33.37069089 -16.37854092 35.31072954 -13 37 C-7.46957948 37.50502343 -2.58969476 37.73807257 2.5 35.375 C6.96179187 31.13629773 9.70660033 26.99267659 10.3125 20.8125 C9.92427363 16.07613827 8.93762485 12.76457018 6 9 C2.05758672 5.79340059 -2.06530676 3.73595516 -7.1875 3.5 C-11.11683553 4.01532269 -13.59859093 5.02243659 -17 7 C-17.99 7.33 -18.98 7.66 -20 8 C-21 5 -21 5 -20.0625 2.875 C-17.05364658 0.13967871 -13.87405639 0.28669488 -10 0 C-8.9275 -0.20625 -7.855 -0.4125 -6.75 -0.625 C-3.96043464 -1.00539528 -2.57200679 -1.07858349 0 0 Z M-29 21 C-28 24 -28 24 -28 24 Z M-28 24 C-27 27 -27 27 -27 27 Z " fill="#391F1D" transform="translate(51,21)"/>
<path d="M0 0 C1.32 0 2.64 0 4 0 C4 1.32 4 2.64 4 4 C4.66 4 5.32 4 6 4 C6 2.68 6 1.36 6 0 C7.65 0.33 9.3 0.66 11 1 C11.33 2.32 11.66 3.64 12 5 C13.32 5.33 14.64 5.66 16 6 C16.33 7.65 16.66 9.3 17 11 C15.68 11 14.36 11 13 11 C13 11.66 13 12.32 13 13 C14.32 13 15.64 13 17 13 C16.58565093 17.83407252 14.62206046 19.89537674 11 23 C7.38069302 24.20643566 4.80768995 24.32268559 1 24 C-2.85407757 21.96388355 -5.62818881 20.25261468 -7 16 C-7 15.01 -7 14.02 -7 13 C-5.68 13 -4.36 13 -3 13 C-3 12.34 -3 11.68 -3 11 C-4.32 11 -5.64 11 -7 11 C-6.25 6.25 -6.25 6.25 -4 4 C-3.34 4.33 -2.68 4.66 -2 5 C-1.855625 4.360625 -1.71125 3.72125 -1.5625 3.0625 C-1 1 -1 1 0 0 Z " fill="#A8D0E1" transform="translate(39,30)"/>
<path d="M0 0 C0.80566406 0.00322266 1.61132812 0.00644531 2.44140625 0.00976562 C3.70404297 0.02233398 3.70404297 0.02233398 4.9921875 0.03515625 C5.84167969 0.03966797 6.69117188 0.04417969 7.56640625 0.04882812 C9.66669659 0.06062751 11.7669508 0.07856319 13.8671875 0.09765625 C14.4921875 1.97265625 14.4921875 1.97265625 14.8671875 4.09765625 C12.8671875 6.09765625 12.8671875 6.09765625 9.828125 6.29296875 C8.64476562 6.26976563 7.46140625 6.2465625 6.2421875 6.22265625 C5.05367187 6.20460938 3.86515625 6.1865625 2.640625 6.16796875 C1.72539063 6.14476563 0.81015625 6.1215625 -0.1328125 6.09765625 C-0.1328125 7.41765625 -0.1328125 8.73765625 -0.1328125 10.09765625 C-8.0528125 10.59265625 -8.0528125 10.59265625 -16.1328125 11.09765625 C-16.3184375 13.53140625 -16.5040625 15.96515625 -16.6953125 18.47265625 C-16.75662354 19.23755371 -16.81793457 20.00245117 -16.88110352 20.79052734 C-17.23815271 24.56228654 -17.23815271 24.56228654 -16.1328125 28.09765625 C-17.1228125 28.42765625 -18.1128125 28.75765625 -19.1328125 29.09765625 C-20.1228125 28.43765625 -21.1128125 27.77765625 -22.1328125 27.09765625 C-24.14940154 26.68248827 -24.14940154 26.68248827 -26.2578125 26.53515625 C-30.1328125 26.09765625 -30.1328125 26.09765625 -31.1328125 25.09765625 C-31.20552991 22.7445207 -31.21652118 20.38931957 -31.1953125 18.03515625 C-31.18628906 16.74480469 -31.17726563 15.45445313 -31.16796875 14.125 C-31.15636719 13.12597656 -31.14476562 12.12695312 -31.1328125 11.09765625 C-30.49472656 10.96488281 -29.85664063 10.83210938 -29.19921875 10.6953125 C-28.37292969 10.51871094 -27.54664063 10.34210938 -26.6953125 10.16015625 C-25.87160156 9.98613281 -25.04789063 9.81210938 -24.19921875 9.6328125 C-22.15620046 9.29012631 -22.15620046 9.29012631 -21.1328125 8.09765625 C-18.6328125 7.97265625 -18.6328125 7.97265625 -16.1328125 8.09765625 C-15.8028125 8.42765625 -15.4728125 8.75765625 -15.1328125 9.09765625 C-13.05803547 9.03324706 -13.05803547 9.03324706 -10.6953125 8.72265625 C-9.89222656 8.63242188 -9.08914062 8.5421875 -8.26171875 8.44921875 C-6.08677118 8.19776384 -6.08677118 8.19776384 -4.1328125 7.09765625 C-4.7928125 6.43765625 -5.4528125 5.77765625 -6.1328125 5.09765625 C-6.1328125 3.77765625 -6.1328125 2.45765625 -6.1328125 1.09765625 C-3.8362755 -0.05061225 -2.54968083 -0.0179555 0 0 Z " fill="#211D14" transform="translate(39.1328125,64.90234375)"/>
<path d="M0 0 C7.92 0 15.84 0 24 0 C24 3.96 24 7.92 24 12 C20.7 12 17.4 12 14 12 C14 12.99 14 13.98 14 15 C12.68 14.67 11.36 14.34 10 14 C10 13.67 10 13.34 10 13 C6.7 12.67 3.4 12.34 0 12 C0 8.04 0 4.08 0 0 Z " fill="#FAD476" transform="translate(32,77)"/>
<path d="M0 0 C2.5 0.125 2.5 0.125 3.5 1.125 C5.01165654 1.51648761 6.53469632 1.86472457 8.0625 2.1875 C8.88878906 2.36410156 9.71507813 2.54070312 10.56640625 2.72265625 C11.20449219 2.85542969 11.84257813 2.98820312 12.5 3.125 C12.52685412 5.43743792 12.54632841 7.7499627 12.5625 10.0625 C12.57410156 11.35027344 12.58570312 12.63804688 12.59765625 13.96484375 C12.5 17.125 12.5 17.125 11.5 18.125 C9.50418759 18.35402765 7.50829833 18.58244704 5.51171875 18.8046875 C3.22074928 19.16946322 1.46516431 19.89677231 -0.5 21.125 C-1.16 20.465 -1.82 19.805 -2.5 19.125 C-1.84 18.795 -1.18 18.465 -0.5 18.125 C-0.83 17.795 -1.16 17.465 -1.5 17.125 C-1.57271741 14.77186445 -1.58370868 12.41666332 -1.5625 10.0625 C-1.55347656 8.77214844 -1.54445313 7.48179688 -1.53515625 6.15234375 C-1.52355469 5.15332031 -1.51195313 4.15429688 -1.5 3.125 C-1.83 3.125 -2.16 3.125 -2.5 3.125 C-5.16666667 3.125 -7.83333333 3.125 -10.5 3.125 C-10.5 2.795 -10.5 2.465 -10.5 2.125 C-9.365625 1.980625 -8.23125 1.83625 -7.0625 1.6875 C-3.7857299 1.17011525 -3.04090876 0.15204544 0 0 Z " fill="#020508" transform="translate(67.5,72.875)"/>
<path d="M0 0 C3.83751333 2.67733488 6.22559473 5.2873878 7.0703125 10.01953125 C7.36354639 15.75714107 6.15525329 19.31216673 2.6875 23.875 C-1.97226863 27.23436808 -6.73893385 27.76397381 -12.3125 26.875 C-16.02265281 25.08863013 -17.8403978 23.55167982 -20.1875 20.1875 C-21.63143989 15.9358992 -22.02903219 12.31749957 -21.3125 7.875 C-16.73782856 -1.27434289 -9.29698353 -3.1574661 0 0 Z M-12.3125 0.875 C-12.9725 1.535 -13.6325 2.195 -14.3125 2.875 C-14.3125 3.865 -14.3125 4.855 -14.3125 5.875 C-15.3025 5.545 -16.2925 5.215 -17.3125 4.875 C-18.7731285 7.52238916 -19.3125 8.76948334 -19.3125 11.875 C-17.9925 11.875 -16.6725 11.875 -15.3125 11.875 C-15.3125 12.535 -15.3125 13.195 -15.3125 13.875 C-16.6325 13.875 -17.9525 13.875 -19.3125 13.875 C-18.89784283 18.71266699 -16.8926385 20.73146376 -13.3125 23.875 C-10.24055092 25.41097454 -7.71005707 25.1015038 -4.3125 24.875 C-0.63731631 23.53214442 1.20955248 22.51226336 3.5625 19.375 C4.89268234 16.87594992 4.89268234 16.87594992 4.6875 13.875 C3.3675 13.875 2.0475 13.875 0.6875 13.875 C0.6875 13.215 0.6875 12.555 0.6875 11.875 C2.0075 11.875 3.3275 11.875 4.6875 11.875 C4.3575 10.225 4.0275 8.575 3.6875 6.875 C2.3675 6.545 1.0475 6.215 -0.3125 5.875 C-0.6425 4.555 -0.9725 3.235 -1.3125 1.875 C-2.9625 1.545 -4.6125 1.215 -6.3125 0.875 C-6.3125 2.195 -6.3125 3.515 -6.3125 4.875 C-6.9725 4.875 -7.6325 4.875 -8.3125 4.875 C-8.3125 3.555 -8.3125 2.235 -8.3125 0.875 C-9.6325 0.875 -10.9525 0.875 -12.3125 0.875 Z " fill="#1D0D12" transform="translate(51.3125,29.125)"/>
<path d="M0 0 C6.46486471 -0.7183183 10.34476141 0.60042092 15.7890625 4.16015625 C20.25635524 7.87763837 21.69439912 11.86079383 22.5 17.5 C21.67168236 23.29822346 19.48572395 27.9554705 15.125 31.9375 C11.91131548 34.05853178 9.80437004 34.72825928 6 35 C6 34.34 6 33.68 6 33 C4.02 33 2.04 33 0 33 C0 32.67 0 32.34 0 32 C1.13888672 31.80083984 1.13888672 31.80083984 2.30078125 31.59765625 C3.29464844 31.42105469 4.28851563 31.24445312 5.3125 31.0625 C6.29863281 30.88847656 7.28476562 30.71445312 8.30078125 30.53515625 C11.08189213 30.04253153 11.08189213 30.04253153 14 29 C17.06354048 23.8940992 17.71714797 18.83678768 17 13 C15.2862726 9.50907381 14.07367159 7.60938117 10.6875 5.6875 C7.47614895 4.86599159 4.29028333 4.38709216 1 4 C1 3.67 1 3.34 1 3 C2.65 3 4.3 3 6 3 C6 2.34 6 1.68 6 1 C4.02 1 2.04 1 0 1 C0 0.67 0 0.34 0 0 Z " fill="#B46066" transform="translate(40,24)"/>
<path d="M0 0 C1.67083819 1.32810215 3.33729713 2.66172696 5 4 C5.9075 4.350625 6.815 4.70125 7.75 5.0625 C8.86375 5.5265625 8.86375 5.5265625 10 6 C10.33 6.99 10.66 7.98 11 9 C11.66 9.33 12.32 9.66 13 10 C13.05402274 12.10388569 13.09280256 14.20816714 13.125 16.3125 C13.14820313 17.48425781 13.17140625 18.65601563 13.1953125 19.86328125 C13 23 13 23 11 26 C10.89042969 25.19175781 10.78085937 24.38351563 10.66796875 23.55078125 C10.50941406 22.48214844 10.35085937 21.41351563 10.1875 20.3125 C10.03667969 19.25675781 9.88585937 18.20101562 9.73046875 17.11328125 C8.75041914 12.93627835 7.40021376 10.11851395 4.01953125 7.41796875 C-1.32513507 4.43819903 -4.87758986 3.19706096 -11 4 C-14.26750881 5.34126843 -14.26750881 5.34126843 -17 7 C-17.99 7.33 -18.98 7.66 -20 8 C-21 5 -21 5 -20.0625 2.875 C-17.05364658 0.13967871 -13.87405639 0.28669488 -10 0 C-8.39125 -0.309375 -8.39125 -0.309375 -6.75 -0.625 C-3.96043464 -1.00539528 -2.57200679 -1.07858349 0 0 Z " fill="#290E0E" transform="translate(51,21)"/>
<path d="M0 0 C0.99 0.33 1.98 0.66 3 1 C2.01 1.495 2.01 1.495 1 2 C0.94615479 4.29141286 0.90727913 6.58318188 0.875 8.875 C0.85179688 10.15117188 0.82859375 11.42734375 0.8046875 12.7421875 C0.64358476 16.08593338 0.64358476 16.08593338 3 18 C1.68 18 0.36 18 -1 18 C-1 17.34 -1 16.68 -1 16 C-3.64 16 -6.28 16 -9 16 C-9.02685938 13.85423363 -9.04633088 11.70837355 -9.0625 9.5625 C-9.07410156 8.36753906 -9.08570313 7.17257813 -9.09765625 5.94140625 C-9 3 -9 3 -8 2 C-4.5 1.5 -4.5 1.5 -1 1 C-0.67 0.67 -0.34 0.34 0 0 Z " fill="#010409" transform="translate(66,74)"/>
<path d="M0 0 C7.875 0.875 7.875 0.875 9 2 C9.09873816 3.99799572 9.12971799 5.99957158 9.125 8 C9.12757812 9.093125 9.13015625 10.18625 9.1328125 11.3125 C9 14 9 14 8 15 C5.66702567 15.04092937 3.33294775 15.04241723 1 15 C1 15.66 1 16.32 1 17 C-0.32 16.67 -1.64 16.34 -3 16 C-2.01 16 -1.02 16 0 16 C0 10.72 0 5.44 0 0 Z " fill="#010408" transform="translate(22,75)"/>
<path d="M0 0 C2.05078125 0.03255208 4.1015625 0.06510417 6.15234375 0.09765625 C6.15234375 4.71765625 6.15234375 9.33765625 6.15234375 14.09765625 C-0 14.1953125 -0 14.1953125 -1.84765625 14.09765625 C-2.84765625 13.09765625 -2.84765625 13.09765625 -2.98046875 10.41015625 C-2.97789063 9.31703125 -2.9753125 8.22390625 -2.97265625 7.09765625 C-2.97523437 6.00453125 -2.9778125 4.91140625 -2.98046875 3.78515625 C-2.80072704 0.14802997 -2.80072704 0.14802997 0 0 Z " fill="#020304" transform="translate(11.84765625,75.90234375)"/>
<path d="M0 0 C2.5 0.125 2.5 0.125 3.5 1.125 C5.01165654 1.51648761 6.53469632 1.86472457 8.0625 2.1875 C8.88878906 2.36410156 9.71507813 2.54070312 10.56640625 2.72265625 C11.20449219 2.85542969 11.84257813 2.98820312 12.5 3.125 C12.52685412 5.43743792 12.54632841 7.7499627 12.5625 10.0625 C12.57410156 11.35027344 12.58570312 12.63804688 12.59765625 13.96484375 C12.5 17.125 12.5 17.125 11.5 18.125 C9.50418759 18.35402765 7.50829833 18.58244704 5.51171875 18.8046875 C3.22074928 19.16946322 1.46516431 19.89677231 -0.5 21.125 C-1.16 20.465 -1.82 19.805 -2.5 19.125 C-1.84 18.795 -1.18 18.465 -0.5 18.125 C-0.83 17.795 -1.16 17.465 -1.5 17.125 C-1.57271741 14.77186445 -1.58370868 12.41666332 -1.5625 10.0625 C-1.55347656 8.77214844 -1.54445313 7.48179688 -1.53515625 6.15234375 C-1.52355469 5.15332031 -1.51195313 4.15429688 -1.5 3.125 C-1.83 3.125 -2.16 3.125 -2.5 3.125 C-5.16666667 3.125 -7.83333333 3.125 -10.5 3.125 C-10.5 2.795 -10.5 2.465 -10.5 2.125 C-9.365625 1.980625 -8.23125 1.83625 -7.0625 1.6875 C-3.7857299 1.17011525 -3.04090876 0.15204544 0 0 Z M2.5 3.125 C2.5 7.745 2.5 12.365 2.5 17.125 C6.50254456 17.21681134 6.50254456 17.21681134 10.5 17.125 C11.80547755 16.04330354 11.80547755 16.04330354 11.6328125 13.4375 C11.62894531 11.7978125 11.62894531 11.7978125 11.625 10.125 C11.62757812 9.031875 11.63015625 7.93875 11.6328125 6.8125 C11.80547755 4.20669646 11.80547755 4.20669646 10.5 3.125 C7.82941149 2.98384839 5.17567762 3.08252893 2.5 3.125 Z " fill="#231F16" transform="translate(67.5,72.875)"/>
<path d="M0 0 C0.80566406 0.00322266 1.61132812 0.00644531 2.44140625 0.00976562 C3.70404297 0.02233398 3.70404297 0.02233398 4.9921875 0.03515625 C5.84167969 0.03966797 6.69117188 0.04417969 7.56640625 0.04882812 C9.66669659 0.06062751 11.7669508 0.07856319 13.8671875 0.09765625 C14.4921875 1.97265625 14.4921875 1.97265625 14.8671875 4.09765625 C12.06949451 6.89534924 9.25168067 6.62692843 5.4921875 6.84765625 C4.81929687 6.90308594 4.14640625 6.95851563 3.453125 7.015625 C-0.30643031 7.25984808 -2.9511314 7.21877699 -6.1328125 5.09765625 C-6.1328125 3.77765625 -6.1328125 2.45765625 -6.1328125 1.09765625 C-3.8362755 -0.05061225 -2.54968083 -0.0179555 0 0 Z " fill="#191103" transform="translate(39.1328125,64.90234375)"/>
<path d="M0 0 C0.99 0 1.98 0 3 0 C3 3.96 3 7.92 3 12 C-0.3 12 -3.6 12 -7 12 C-7 12.99 -7 13.98 -7 15 C-8.32 14.67 -9.64 14.34 -11 14 C-11 13.67 -11 13.34 -11 13 C-14.3 12.67 -17.6 12.34 -21 12 C-21 11.01 -21 10.02 -21 9 C-14.07 9 -7.14 9 0 9 C0 6.03 0 3.06 0 0 Z " fill="#E1B46E" transform="translate(53,77)"/>
<path d="M0 0 C0.99 0 1.98 0 3 0 C2.4007227 10.08439039 1.07728279 16.40290945 -6.48046875 23.32421875 C-8.62907275 25.69375889 -8.92349675 27.86336689 -9 31 C-9.99 30.67 -10.98 30.34 -12 30 C-12 28.35 -12 26.7 -12 25 C-15.63 25 -19.26 25 -23 25 C-23 24.67 -23 24.34 -23 24 C-22.34773438 23.97421875 -21.69546875 23.9484375 -21.0234375 23.921875 C-15.27917137 23.54909077 -11.4679872 22.93608396 -7 19 C-4.73674754 16.02236957 -4.73674754 16.02236957 -3 13 C-2.34 12.01 -1.68 11.02 -1 10 C-0.10898047 6.61412577 0.09978762 3.49256685 0 0 Z " fill="#431F20" transform="translate(63,35)"/>
<path d="M0 0 C6.93 0.495 6.93 0.495 14 1 C14 2.65 14 4.3 14 6 C9.38 6 4.76 6 0 6 C0 4.02 0 2.04 0 0 Z " fill="#070406" transform="translate(37,59)"/>
<path d="M0 0 C0.625 1.875 0.625 1.875 1 4 C0.34 4.66 -0.32 5.32 -1 6 C0.32 6.33 1.64 6.66 3 7 C3 7.66 3 8.32 3 9 C-2.94 9 -8.88 9 -15 9 C-15 7.68 -15 6.36 -15 5 C-14.08476563 4.97421875 -13.16953125 4.9484375 -12.2265625 4.921875 C-11.03804687 4.86515625 -9.84953125 4.8084375 -8.625 4.75 C-7.44164062 4.70359375 -6.25828125 4.6571875 -5.0390625 4.609375 C-1.88708247 4.34351201 -1.88708247 4.34351201 -0.5859375 1.953125 C-0.39257812 1.30859375 -0.19921875 0.6640625 0 0 Z " fill="#262523" transform="translate(54,66)"/>
<path d="M0 0 C0 0.99 0 1.98 0 3 C2.475 3.495 2.475 3.495 5 4 C5 4.33 5 4.66 5 5 C2.91695462 5.05418326 0.83350232 5.09287551 -1.25 5.125 C-2.99023438 5.15980469 -2.99023438 5.15980469 -4.765625 5.1953125 C-7.91218125 5.00530306 -9.31687206 4.48034645 -12 3 C-14.33203812 2.9222654 -16.66839059 2.91032272 -19 3 C-19 2.34 -19 1.68 -19 1 C-12.65758005 -0.15316726 -6.43311296 -0.09507063 0 0 Z M-8 3 C-8 3.33 -8 3.66 -8 4 C-6.02 4 -4.04 4 -2 4 C-2 3.67 -2 3.34 -2 3 C-3.98 3 -5.96 3 -8 3 Z " fill="#382816" transform="translate(42,89)"/>
<path d="M0 0 C1.98 0 3.96 0 6 0 C6 3.3 6 6.6 6 10 C4.02 10 2.04 10 0 10 C0 6.7 0 3.4 0 0 Z " fill="#314759" transform="translate(24,78)"/>
<path d="M0 0 C1.98 0 3.96 0 6 0 C6 3.3 6 6.6 6 10 C4.02 10 2.04 10 0 10 C0 6.7 0 3.4 0 0 Z " fill="#304555" transform="translate(71,78)"/>
<path d="M0 0 C1.98 0 3.96 0 6 0 C6 3.3 6 6.6 6 10 C4.02 10 2.04 10 0 10 C0 6.7 0 3.4 0 0 Z " fill="#314758" transform="translate(58,78)"/>
<path d="M0 0 C1.98 0 3.96 0 6 0 C6 3.3 6 6.6 6 10 C4.02 10 2.04 10 0 10 C0 6.7 0 3.4 0 0 Z " fill="#304454" transform="translate(11,78)"/>
<path d="M0 0 C1.32 0 2.64 0 4 0 C3.71438296 3.33219881 2.92269244 5.11720824 1.0625 7.9375 C-2 10 -2 10 -4.5546875 9.8671875 C-7.08450554 9.35835724 -9.5323822 8.75226407 -12 8 C-12 7.34 -12 6.68 -12 6 C-8.7 6 -5.4 6 -2 6 C-1.34 4.02 -0.68 2.04 0 0 Z " fill="#5D90A9" transform="translate(52,43)"/>
<path d="M0 0 C0.33 0.99 0.66 1.98 1 3 C-3.105466 6.97185616 -6.02968261 9.70876501 -12 10 C-12 9.34 -12 8.68 -12 8 C-13.98 8 -15.96 8 -18 8 C-18 7.67 -18 7.34 -18 7 C-17.24074219 6.86722656 -16.48148438 6.73445313 -15.69921875 6.59765625 C-14.70535156 6.42105469 -13.71148437 6.24445312 -12.6875 6.0625 C-11.70136719 5.88847656 -10.71523438 5.71445312 -9.69921875 5.53515625 C-6.91810787 5.04253153 -6.91810787 5.04253153 -4 4 C-3.67 3.01 -3.34 2.02 -3 1 C-2.01 0.67 -1.02 0.34 0 0 Z " fill="#BC666C" transform="translate(58,49)"/>
<path d="M0 0 C-0.99 0.33 -1.98 0.66 -3 1 C-3.33 2.65 -3.66 4.3 -4 6 C-5.8125 6.625 -5.8125 6.625 -8 7 C-8.99 6.34 -9.98 5.68 -11 5 C-10.67 3.35 -10.34 1.7 -10 0 C-3.375 -1.125 -3.375 -1.125 0 0 Z " fill="#0D1D28" transform="translate(51,39)"/>
<path d="M0 0 C5.28 0 10.56 0 16 0 C16 0.99 16 1.98 16 3 C10.72 3 5.44 3 0 3 C0 2.01 0 1.02 0 0 Z " fill="#DCC184" transform="translate(36,66)"/>
<path d="M0 0 C0.66 0 1.32 0 2 0 C2 3.3 2 6.6 2 10 C-5.26 9.67 -12.52 9.34 -20 9 C-20 8.67 -20 8.34 -20 8 C-13.4 8 -6.8 8 0 8 C0 5.36 0 2.72 0 0 Z " fill="#F4BF63" transform="translate(53,78)"/>
<path d="M0 0 C2.92836337 0.45051744 4.38537851 1.2680894 6.875 3 C10.08363858 5.05352869 12.25172197 5.64302114 16 6 C16 6.66 16 7.32 16 8 C9.94238206 8.41776675 6.80974903 8.12264203 2 4 C0.625 1.75 0.625 1.75 0 0 Z " fill="#D27E7F" transform="translate(30,51)"/>
<path d="M0 0 C2.66666667 1.33333333 5.33333333 2.66666667 8 4 C8.05402274 6.10388569 8.09280256 8.20816714 8.125 10.3125 C8.14820312 11.48425781 8.17140625 12.65601563 8.1953125 13.86328125 C8 17 8 17 6 20 C5.85304688 18.80503906 5.85304688 18.80503906 5.703125 17.5859375 C4.81558992 11.29668027 3.94120515 6.99219319 0 2 C0 1.34 0 0.68 0 0 Z " fill="#280909" transform="translate(56,27)"/>
<path d="M0 0 C6.44070471 -0.10655578 12.62641289 0.03794912 19 1 C18.67 1.66 18.34 2.32 18 3 C12.06 3 6.12 3 0 3 C0 2.01 0 1.02 0 0 Z " fill="#3D2A16" transform="translate(46,89)"/>
<path d="M0 0 C0.99 0 1.98 0 3 0 C3 4.62 3 9.24 3 14 C2.01 14 1.02 14 0 14 C0 9.38 0 4.76 0 0 Z " fill="#E5CA8E" transform="translate(19,76)"/>
<path d="M0 0 C0.99 0 1.98 0 3 0 C3 4.62 3 9.24 3 14 C2.01 14 1.02 14 0 14 C0 9.38 0 4.76 0 0 Z " fill="#E5CA8E" transform="translate(66,76)"/>
<path d="M0 0 C1.21236328 0.02707031 1.21236328 0.02707031 2.44921875 0.0546875 C3.37154297 0.08949219 3.37154297 0.08949219 4.3125 0.125 C4.3125 0.785 4.3125 1.445 4.3125 2.125 C3.70921875 2.31835938 3.1059375 2.51171875 2.484375 2.7109375 C1.68515625 2.97132812 0.8859375 3.23171875 0.0625 3.5 C-0.72640625 3.75523438 -1.5153125 4.01046875 -2.328125 4.2734375 C-4.55377958 5.07673667 -6.59681672 6.02211662 -8.6875 7.125 C-8.375 4.75 -8.375 4.75 -7.6875 2.125 C-4.48369983 -0.01086678 -3.66810033 -0.10632175 0 0 Z " fill="#CF7B7C" transform="translate(41.6875,24.875)"/>
<path d="M0 0 C-0.66 2.64 -1.32 5.28 -2 8 C-2.99 7.67 -3.98 7.34 -5 7 C-5 5.35 -5 3.7 -5 2 C-8.63 2 -12.26 2 -16 2 C-16 1.67 -16 1.34 -16 1 C-10.65097076 0.40801257 -5.39115154 -0.14187241 0 0 Z " fill="#3D1F1F" transform="translate(56,58)"/>
<path d="M0 0 C0.99 0 1.98 0 3 0 C2.690625 0.94875 2.38125 1.8975 2.0625 2.875 C0.72071729 7.50938425 0.36657993 12.20552041 0 17 C-1.69242399 14.04497399 -2.27328801 11.90004978 -2.25 8.5 C-2.25515625 7.7471875 -2.2603125 6.994375 -2.265625 6.21875 C-1.97250404 3.7703279 -1.21816769 2.12695946 0 0 Z " fill="#250909" transform="translate(26,31)"/>
<path d="M0 0 C0.99 0.33 1.98 0.66 3 1 C2.01 1.495 2.01 1.495 1 2 C0.94615479 4.29141286 0.90727913 6.58318188 0.875 8.875 C0.85179688 10.15117188 0.82859375 11.42734375 0.8046875 12.7421875 C0.64358476 16.08593338 0.64358476 16.08593338 3 18 C1.68 18 0.36 18 -1 18 C-1 17.34 -1 16.68 -1 16 C-1.99 15.67 -2.98 15.34 -4 15 C-3.34 14.34 -2.68 13.68 -2 13 C-1.57354771 10.1404923 -1.57354771 10.1404923 -1.4375 6.9375 C-1.09722222 1.09722222 -1.09722222 1.09722222 0 0 Z " fill="#0C0601" transform="translate(66,74)"/>
<path d="M0 0 C3.3 0 6.6 0 10 0 C10 0.99 10 1.98 10 3 C6.7 3 3.4 3 0 3 C0 2.01 0 1.02 0 0 Z " fill="#374C5B" transform="translate(39,71)"/>
<path d="M0 0 C2 2 2 2 2.265625 4.09375 C2.26046875 4.8878125 2.2553125 5.681875 2.25 6.5 C2.25515625 7.2940625 2.2603125 8.088125 2.265625 8.90625 C2 11 2 11 0 13 C0 11.35 0 9.7 0 8 C-1.32 8 -2.64 8 -4 8 C-4 7.34 -4 6.68 -4 6 C-2.68 6 -1.36 6 0 6 C0 4.02 0 2.04 0 0 Z " fill="#130B15" transform="translate(56,35)"/>
<path d="M0 0 C2.6635969 0.35994553 4.58183452 0.71161002 6.8125 2.25 C8.39364795 4.58011277 8.22337696 6.24501755 8 9 C3.125 6.375 3.125 6.375 2 3 C1.34 2.67 0.68 2.34 0 2 C0 1.34 0 0.68 0 0 Z " fill="#251A23" transform="translate(48,29)"/>
<path d="M0 0 C2.375 0.6875 2.375 0.6875 5 2 C6.3125 4.625 6.3125 4.625 7 7 C6.34 7 5.68 7 5 7 C4.67 7.66 4.34 8.32 4 9 C0 3.375 0 3.375 0 0 Z " fill="#BC666C" transform="translate(53,28)"/>
<path d="M0 0 C5 2 5 2 10 4 C9.67 4.99 9.34 5.98 9 7 C8.01 6.34 7.02 5.68 6 5 C5.01 5 4.02 5 3 5 C0.8125 3.5 0.8125 3.5 -1 2 C-0.67 1.34 -0.34 0.68 0 0 Z " fill="#3D1719" transform="translate(51,23)"/>
<path d="M0 0 C6.6 0 13.2 0 20 0 C20 0.33 20 0.66 20 1 C18.80761719 1.04898438 17.61523438 1.09796875 16.38671875 1.1484375 C14.82028932 1.22347604 13.25388421 1.2990234 11.6875 1.375 C10.90181641 1.4059375 10.11613281 1.436875 9.30664062 1.46875 C8.1706543 1.52675781 8.1706543 1.52675781 7.01171875 1.5859375 C6.31522217 1.6173584 5.61872559 1.6487793 4.90112305 1.68115234 C2.67467261 1.92118253 2.67467261 1.92118253 0 4 C0 2.68 0 1.36 0 0 Z " fill="#F9D67D" transform="translate(33,78)"/>
<path d="M0 0 C0.66 0 1.32 0 2 0 C0.25 5.75 0.25 5.75 -2 8 C-4.625 8.125 -4.625 8.125 -7 8 C-6.21625 7.236875 -5.4325 6.47375 -4.625 5.6875 C-1.92742283 3.09108195 -1.92742283 3.09108195 0 0 Z " fill="#360F10" transform="translate(59,50)"/>
<path d="M0 0 C0.66 0 1.32 0 2 0 C2 1.32 2 2.64 2 4 C3.32 4 4.64 4 6 4 C6 4.66 6 5.32 6 6 C4.68 6 3.36 6 2 6 C2 6.99 2 7.98 2 9 C1.34 9 0.68 9 0 9 C0 6.03 0 3.06 0 0 Z " fill="#130B10" transform="translate(30,37)"/>
<path d="M0 0 C0.99 0.33 1.98 0.66 3 1 C2.6875 2.9375 2.6875 2.9375 2 5 C1.01 5.33 0.02 5.66 -1 6 C-1.66 6.66 -2.32 7.32 -3 8 C-3.33 7.01 -3.66 6.02 -4 5 C-2.0625 2.3125 -2.0625 2.3125 0 0 Z " fill="#2B1B1E" transform="translate(35,30)"/>
<path d="M0 0 C1.32 0 2.64 0 4 0 C4 1.98 4 3.96 4 6 C2.68 6 1.36 6 0 6 C0 4.02 0 2.04 0 0 Z " fill="#3A5B75" transform="translate(72,79)"/>
<path d="M0 0 C1.32 0 2.64 0 4 0 C4 1.98 4 3.96 4 6 C2.68 6 1.36 6 0 6 C0 4.02 0 2.04 0 0 Z " fill="#3A5B76" transform="translate(59,79)"/>
<path d="M0 0 C1.32 0 2.64 0 4 0 C4 1.98 4 3.96 4 6 C2.68 6 1.36 6 0 6 C0 4.02 0 2.04 0 0 Z " fill="#3A5B76" transform="translate(25,79)"/>
<path d="M0 0 C1.32 0 2.64 0 4 0 C4 1.98 4 3.96 4 6 C2.68 6 1.36 6 0 6 C0 4.02 0 2.04 0 0 Z " fill="#3A5B74" transform="translate(12,79)"/>
<path d="M0 0 C0.33 0 0.66 0 1 0 C1.06058594 0.68707031 1.12117188 1.37414062 1.18359375 2.08203125 C1.26738281 2.98308594 1.35117187 3.88414063 1.4375 4.8125 C1.51871094 5.70582031 1.59992187 6.59914063 1.68359375 7.51953125 C1.93489767 10.12743559 1.93489767 10.12743559 3 13 C2.34 13 1.68 13 1 13 C1 13.66 1 14.32 1 15 C-0.32 14.67 -1.64 14.34 -3 14 C-2.01 14 -1.02 14 0 14 C0 9.38 0 4.76 0 0 Z " fill="#0F0601" transform="translate(22,77)"/>
<path d="M0 0 C3.3 0 6.6 0 10 0 C10 0.99 10 1.98 10 3 C6.7 3 3.4 3 0 3 C0 2.01 0 1.02 0 0 Z " fill="#3D4D5C" transform="translate(39,61)"/>
<path d="M0 0 C1.125 1.75 1.125 1.75 2 4 C1.125 6.25 1.125 6.25 0 8 C-1.32 7.67 -2.64 7.34 -4 7 C-2.68 4.69 -1.36 2.38 0 0 Z " fill="#ABE0F7" transform="translate(50,41)"/>
<path d="M0 0 C0.33 0 0.66 0 1 0 C1 3.3 1 6.6 1 10 C2.65 10 4.3 10 6 10 C5.67 10.66 5.34 11.32 5 12 C3.35 12 1.7 12 0 12 C-1.31157516 9.37684968 -0.89649988 7.76966564 -0.5625 4.875 C-0.46066406 3.96492188 -0.35882813 3.05484375 -0.25390625 2.1171875 C-0.17011719 1.41851562 -0.08632812 0.71984375 0 0 Z " fill="#00080F" transform="translate(10,78)"/>
<path d="M0 0 C0.66 0.99 1.32 1.98 2 3 C-2.625 7.875 -2.625 7.875 -6 9 C-6.66 8.34 -7.32 7.68 -8 7 C-7.05125 6.5875 -6.1025 6.175 -5.125 5.75 C-1.99283376 3.9959869 -1.13499394 3.29148243 0 0 Z " fill="#211621" transform="translate(55,46)"/>
<path d="M0 0 C1.32 0.33 2.64 0.66 4 1 C4.33 2.65 4.66 4.3 5 6 C3.68 6 2.36 6 1 6 C0.67 4.02 0.34 2.04 0 0 Z " fill="#86B9D3" transform="translate(51,35)"/>
<path d="M0 0 C0 0.66 0 1.32 0 2 C-4.08443115 3.53166168 -7.79455657 2.63081652 -12 2 C-12 1.67 -12 1.34 -12 1 C-7.95858806 0.36605303 -4.0934693 -0.12404452 0 0 Z " fill="#19150E" transform="translate(22,74)"/>
<path d="M0 0 C3.3 0 6.6 0 10 0 C10 0.99 10 1.98 10 3 C8.68 3 7.36 3 6 3 C6 2.34 6 1.68 6 1 C4.02 1 2.04 1 0 1 C0 0.67 0 0.34 0 0 Z " fill="#C47074" transform="translate(40,56)"/>
<path d="M0 0 C1.66666667 0 3.33333333 0 5 0 C5 1.32 5 2.64 5 4 C3.68 4.33 2.36 4.66 1 5 C0.67 3.35 0.34 1.7 0 0 Z " fill="#304351" transform="translate(40,40)"/>
<path d="M0 0 C0.66 0.33 1.32 0.66 2 1 C1.34 2.98 0.68 4.96 0 7 C-0.66 7 -1.32 7 -2 7 C-2.33 6.01 -2.66 5.02 -3 4 C-1.5625 1.8125 -1.5625 1.8125 0 0 Z " fill="#3C1B1B" transform="translate(33,22)"/>
<path d="M0 0 C4.95 0.99 4.95 0.99 10 2 C10 2.33 10 2.66 10 3 C8.88625 2.95875 7.7725 2.9175 6.625 2.875 C2.95633975 2.58878141 2.95633975 2.58878141 1 5 C0.67 3.35 0.34 1.7 0 0 Z " fill="#151118" transform="translate(37,59)"/>
<path d="M0 0 C0.99 1.32 1.98 2.64 3 4 C1.515 6.475 1.515 6.475 0 9 C-1.10844919 5.67465243 -0.84454356 3.37817425 0 0 Z " fill="#401618" transform="translate(61,45)"/>
<path d="M0 0 C0.33 0 0.66 0 1 0 C1 3.96 1 7.92 1 12 C0.67 12 0.34 12 0 12 C0 8.04 0 4.08 0 0 Z " fill="#12100E" transform="translate(81,76)"/>
<path d="M0 0 C0.33 0 0.66 0 1 0 C1 3.96 1 7.92 1 12 C0.67 12 0.34 12 0 12 C0 8.04 0 4.08 0 0 Z " fill="#766A5A" transform="translate(6,76)"/>
<path d="M0 0 C2.64 0 5.28 0 8 0 C5 2 5 2 2.3125 1.625 C1.1678125 1.315625 1.1678125 1.315625 0 1 C0 0.67 0 0.34 0 0 Z " fill="#302B24" transform="translate(9,92)"/>
<path d="M0 0 C2.31 0 4.62 0 7 0 C7 0.33 7 0.66 7 1 C4.69 1 2.38 1 0 1 C0 0.67 0 0.34 0 0 Z " fill="#574C40" transform="translate(71,73)"/>
<path d="M0 0 C2.31 0 4.62 0 7 0 C7 0.33 7 0.66 7 1 C4.69 1 2.38 1 0 1 C0 0.67 0 0.34 0 0 Z " fill="#665B4C" transform="translate(10,73)"/>
<path d="M0 0 C1.98 0 3.96 0 6 0 C6 0.33 6 0.66 6 1 C4.02 1 2.04 1 0 1 C0 0.67 0 0.34 0 0 Z " fill="#221D19" transform="translate(24,92)"/>
<path d="M0 0 C1.98 0 3.96 0 6 0 C6 0.33 6 0.66 6 1 C4.02 1 2.04 1 0 1 C0 0.67 0 0.34 0 0 Z " fill="#453D35" transform="translate(58,73)"/>
<path d="M0 0 C1.98 0 3.96 0 6 0 C6 0.33 6 0.66 6 1 C4.02 1 2.04 1 0 1 C0 0.67 0 0.34 0 0 Z " fill="#453D34" transform="translate(24,73)"/>
<path d="M0 0 C0.33 0 0.66 0 1 0 C1 1.98 1 3.96 1 6 C0.67 6 0.34 6 0 6 C0 4.02 0 2.04 0 0 Z " fill="#312521" transform="translate(66,39)"/>
<path d="M0 0 C1.98 0 3.96 0 6 0 C6 0.33 6 0.66 6 1 C4.02 1 2.04 1 0 1 C0 0.67 0 0.34 0 0 Z " fill="#726364" transform="translate(41,19)"/>
<path d="M0 0 C0 0.99 0 1.98 0 3 C-0.66 2.67 -1.32 2.34 -2 2 C-1.34 1.34 -0.68 0.68 0 0 Z " fill="#3B1B1B" transform="translate(59,56)"/>
<path d="M0 0 C4 1 4 1 4 1 Z " fill="#28251F" transform="translate(75,92)"/>
<path d="M0 0 C4 1 4 1 4 1 Z " fill="#201C18" transform="translate(58,92)"/>
<path d="M0 0 C4 1 4 1 4 1 Z " fill="#64584D" transform="translate(66,71)"/>
<path d="M0 0 C4 1 4 1 4 1 Z " fill="#685D4F" transform="translate(18,71)"/>
<path d="M0 0 C1 4 1 4 1 4 Z " fill="#271F18" transform="translate(56,66)"/>
<path d="M0 0 C1 4 1 4 1 4 Z " fill="#6B6055" transform="translate(31,66)"/>
<path d="M0 0 C3 1 3 1 3 1 Z " fill="#2A1F19" transform="translate(55,93)"/>
<path d="M0 0 C3 1 3 1 3 1 Z " fill="#2B231C" transform="translate(30,93)"/>
<path d="M0 0 C3 1 3 1 3 1 Z " fill="#261F17" transform="translate(71,92)"/>
<path d="" fill="#2B1614" transform="translate(0,0)"/>
<path d="" fill="#5F524B" transform="translate(0,0)"/>
<path d="" fill="#4F403A" transform="translate(0,0)"/>
<path d="M0 0 C2 1 2 1 2 1 Z " fill="#29211A" transform="translate(65,94)"/>
<path d="M0 0 C2 1 2 1 2 1 Z " fill="#2A221A" transform="translate(21,94)"/>
<path d="M0 0 C2 1 2 1 2 1 Z " fill="#2A231A" transform="translate(18,94)"/>
<path d="M0 0 C2 1 2 1 2 1 Z " fill="#5E564C" transform="translate(30,72)"/>
<path d="" fill="#2D251E" transform="translate(0,0)"/>
<path d="M0 0 C2 1 2 1 2 1 Z " fill="#301816" transform="translate(29,58)"/>
<path d="" fill="#321918" transform="translate(0,0)"/>
<path d="" fill="#362522" transform="translate(0,0)"/>
<path d="" fill="#301C1A" transform="translate(0,0)"/>
<path d="M0 0 C2 1 2 1 2 1 Z " fill="#362323" transform="translate(53,22)"/>
<path d="M0 0 C2 1 2 1 2 1 Z " fill="#392727" transform="translate(51,21)"/>
<path d="M0 0 C2 1 2 1 2 1 Z " fill="#423231" transform="translate(35,21)"/>
<path d="M0 0 C2 1 2 1 2 1 Z " fill="#5D4E4E" transform="translate(38,20)"/>
<path d="" fill="#5A5146" transform="translate(0,0)"/>
<path d="" fill="#675E52" transform="translate(0,0)"/>
<path d="" fill="#5E5547" transform="translate(0,0)"/>
<path d="" fill="#272018" transform="translate(0,0)"/>
<path d="" fill="#2C2317" transform="translate(0,0)"/>
<path d="" fill="#2A2118" transform="translate(0,0)"/>
<path d="" fill="#2E2318" transform="translate(0,0)"/>
<path d="" fill="#2C2318" transform="translate(0,0)"/>
<path d="" fill="#1D1815" transform="translate(0,0)"/>
<path d="" fill="#39332D" transform="translate(0,0)"/>
<path d="" fill="#261E19" transform="translate(0,0)"/>
<path d="" fill="#28211B" transform="translate(0,0)"/>
<path d="" fill="#27201A" transform="translate(0,0)"/>
<path d="" fill="#372C21" transform="translate(0,0)"/>
<path d="" fill="#262017" transform="translate(0,0)"/>
<path d="" fill="#221810" transform="translate(0,0)"/>
<path d="" fill="#261F18" transform="translate(0,0)"/>
<path d="" fill="#261D17" transform="translate(0,0)"/>
<path d="" fill="#39312A" transform="translate(0,0)"/>
<path d="" fill="#62564E" transform="translate(0,0)"/>
<path d="" fill="#351918" transform="translate(0,0)"/>
<path d="" fill="#301917" transform="translate(0,0)"/>
<path d="" fill="#3B1C1B" transform="translate(0,0)"/>
<path d="" fill="#2F1816" transform="translate(0,0)"/>
<path d="" fill="#352521" transform="translate(0,0)"/>
<path d="" fill="#311A18" transform="translate(0,0)"/>
<path d="" fill="#351918" transform="translate(0,0)"/>
<path d="" fill="#321F1C" transform="translate(0,0)"/>
<path d="" fill="#6F625A" transform="translate(0,0)"/>
<path d="" fill="#685C55" transform="translate(0,0)"/>
<path d="" fill="#665851" transform="translate(0,0)"/>
<path d="" fill="#655550" transform="translate(0,0)"/>
<path d="" fill="#483833" transform="translate(0,0)"/>
<path d="" fill="#3B2623" transform="translate(0,0)"/>
<path d="" fill="#4A3A36" transform="translate(0,0)"/>
<path d="" fill="#321817" transform="translate(0,0)"/>
<path d="" fill="#906D6A" transform="translate(0,0)"/>
<path d="" fill="#2F1917" transform="translate(0,0)"/>
<path d="" fill="#301B19" transform="translate(0,0)"/>
<path d="" fill="#6A5A57" transform="translate(0,0)"/>
<path d="" fill="#321919" transform="translate(0,0)"/>
<path d="" fill="#402E2D" transform="translate(0,0)"/>
<path d="" fill="#321D1C" transform="translate(0,0)"/>
</svg>
